<svg width="142" height="23" viewBox="0 0 142 23" fill="none" xmlns="http://www.w3.org/2000/svg">
<path d="M14.28 1.015V15.355C14.28 17.575 13.65 19.285 12.39 20.485C11.15 21.685 9.47 22.285 7.35 22.285C5.13 22.285 3.35 21.655 2.01 20.395C0.67 19.135 0 17.345 0 15.025H5.1C5.1 15.905 5.28 16.575 5.64 17.035C6 17.475 6.52 17.695 7.2 17.695C7.82 17.695 8.3 17.495 8.64 17.095C8.98 16.695 9.15 16.115 9.15 15.355V1.015H14.28Z" fill="#3773FD"/>
<path d="M28.9838 22.285C27.0038 22.285 25.1838 21.825 23.5238 20.905C21.8838 19.985 20.5738 18.705 19.5938 17.065C18.6337 15.405 18.1537 13.545 18.1537 11.485C18.1537 9.425 18.6337 7.575 19.5938 5.935C20.5738 4.295 21.8838 3.015 23.5238 2.095C25.1838 1.175 27.0038 0.714996 28.9838 0.714996C30.9638 0.714996 32.7738 1.175 34.4138 2.095C36.0738 3.015 37.3738 4.295 38.3138 5.935C39.2738 7.575 39.7538 9.425 39.7538 11.485C39.7538 13.545 39.2738 15.405 38.3138 17.065C37.3538 18.705 36.0538 19.985 34.4138 20.905C32.7738 21.825 30.9638 22.285 28.9838 22.285ZM28.9838 17.605C30.6638 17.605 32.0038 17.045 33.0037 15.925C34.0238 14.805 34.5338 13.325 34.5338 11.485C34.5338 9.625 34.0238 8.145 33.0037 7.045C32.0038 5.925 30.6638 5.365 28.9838 5.365C27.2838 5.365 25.9237 5.915 24.9037 7.015C23.9037 8.115 23.4037 9.605 23.4037 11.485C23.4037 13.345 23.9037 14.835 24.9037 15.955C25.9237 17.055 27.2838 17.605 28.9838 17.605Z" fill="#3773FD"/>
<path d="M55.9577 11.275C57.1777 11.535 58.1577 12.145 58.8977 13.105C59.6377 14.045 60.0077 15.125 60.0077 16.345C60.0077 18.105 59.3877 19.505 58.1477 20.545C56.9277 21.565 55.2177 22.075 53.0177 22.075H43.2077V1.015H52.6877C54.8277 1.015 56.4977 1.505 57.6977 2.48499C58.9177 3.465 59.5277 4.795 59.5277 6.475C59.5277 7.715 59.1977 8.745 58.5377 9.565C57.8977 10.385 57.0377 10.955 55.9577 11.275ZM48.3377 9.535H51.6977C52.5377 9.535 53.1777 9.355 53.6177 8.995C54.0777 8.615 54.3077 8.065 54.3077 7.345C54.3077 6.625 54.0777 6.075 53.6177 5.695C53.1777 5.315 52.5377 5.125 51.6977 5.125H48.3377V9.535ZM52.1177 17.935C52.9777 17.935 53.6377 17.745 54.0977 17.365C54.5777 16.965 54.8177 16.395 54.8177 15.655C54.8177 14.915 54.5677 14.335 54.0677 13.915C53.5877 13.495 52.9177 13.285 52.0577 13.285H48.3377V17.935H52.1177Z" fill="#3773FD"/>
<path d="M71.2031 22.285C69.6631 22.285 68.2831 22.035 67.0631 21.535C65.8431 21.035 64.8631 20.295 64.1231 19.315C63.4031 18.335 63.0231 17.155 62.9831 15.775H68.4431C68.5231 16.555 68.7931 17.155 69.2531 17.575C69.7131 17.975 70.3131 18.175 71.0531 18.175C71.8131 18.175 72.4131 18.005 72.8531 17.665C73.2931 17.305 73.5131 16.815 73.5131 16.195C73.5131 15.675 73.3331 15.245 72.9731 14.905C72.6331 14.565 72.2031 14.285 71.6831 14.065C71.1831 13.845 70.4631 13.595 69.5231 13.315C68.1631 12.895 67.0531 12.475 66.1931 12.055C65.3331 11.635 64.5931 11.015 63.9731 10.195C63.3531 9.375 63.0431 8.305 63.0431 6.985C63.0431 5.025 63.7531 3.495 65.1731 2.395C66.5931 1.275 68.4431 0.714996 70.7231 0.714996C73.0431 0.714996 74.9131 1.275 76.3331 2.395C77.7531 3.495 78.5131 5.035 78.6131 7.015H73.0631C73.0231 6.335 72.7731 5.805 72.3131 5.425C71.8531 5.025 71.2631 4.825 70.5431 4.825C69.9231 4.825 69.4231 4.99499 69.0431 5.335C68.6631 5.65499 68.4731 6.12499 68.4731 6.745C68.4731 7.425 68.7931 7.955 69.4331 8.335C70.0731 8.715 71.0731 9.125 72.4331 9.565C73.7931 10.025 74.8931 10.465 75.7331 10.885C76.5931 11.305 77.3331 11.915 77.9531 12.715C78.5731 13.515 78.8831 14.545 78.8831 15.805C78.8831 17.005 78.5731 18.095 77.9531 19.075C77.3531 20.055 76.4731 20.835 75.3131 21.415C74.1531 21.995 72.7831 22.285 71.2031 22.285Z" fill="#3773FD"/>
<path d="M98.6902 7.795C98.6902 9.015 98.4102 10.135 97.8502 11.155C97.2902 12.155 96.4302 12.965 95.2702 13.585C94.1102 14.205 92.6702 14.515 90.9502 14.515H87.7702V22.075H82.6402V1.015H90.9502C92.6302 1.015 94.0502 1.305 95.2102 1.885C96.3702 2.465 97.2402 3.265 97.8202 4.285C98.4002 5.305 98.6902 6.475 98.6902 7.795ZM90.5602 10.435C91.5402 10.435 92.2702 10.205 92.7502 9.745C93.2302 9.285 93.4702 8.635 93.4702 7.795C93.4702 6.955 93.2302 6.305 92.7502 5.845C92.2702 5.385 91.5402 5.155 90.5602 5.155H87.7702V10.435H90.5602Z" fill="#3773FD"/>
<path d="M111.921 22.285C109.941 22.285 108.121 21.825 106.461 20.905C104.821 19.985 103.511 18.705 102.531 17.065C101.571 15.405 101.091 13.545 101.091 11.485C101.091 9.425 101.571 7.575 102.531 5.935C103.511 4.295 104.821 3.015 106.461 2.095C108.121 1.175 109.941 0.714996 111.921 0.714996C113.901 0.714996 115.711 1.175 117.351 2.095C119.011 3.015 120.311 4.295 121.251 5.935C122.211 7.575 122.691 9.425 122.691 11.485C122.691 13.545 122.211 15.405 121.251 17.065C120.291 18.705 118.991 19.985 117.351 20.905C115.711 21.825 113.901 22.285 111.921 22.285ZM111.921 17.605C113.601 17.605 114.941 17.045 115.941 15.925C116.961 14.805 117.471 13.325 117.471 11.485C117.471 9.625 116.961 8.145 115.941 7.045C114.941 5.925 113.601 5.365 111.921 5.365C110.221 5.365 108.861 5.915 107.841 7.015C106.841 8.115 106.341 9.605 106.341 11.485C106.341 13.345 106.841 14.835 107.841 15.955C108.861 17.055 110.221 17.605 111.921 17.605Z" fill="#3773FD"/>
<path d="M141.295 1.015V5.125H135.715V22.075H130.585V5.125H125.005V1.015H141.295Z" fill="#3773FD"/>
</svg>
