<svg width="197" height="30" viewBox="0 0 197 30" fill="none" xmlns="http://www.w3.org/2000/svg">
<path d="M19.8609 0.417246V20.3616C19.8609 23.4492 18.9847 25.8275 17.2323 27.4965C15.5077 29.1655 13.1711 30 10.2225 30C7.13491 30 4.65925 29.1238 2.79555 27.3713C0.93185 25.6189 0 23.1293 0 19.9026H7.09318C7.09318 21.1266 7.34353 22.0584 7.84423 22.6982C8.34492 23.3102 9.06815 23.6161 10.0139 23.6161C10.8762 23.6161 11.5438 23.338 12.0167 22.7816C12.4896 22.2253 12.726 21.4186 12.726 20.3616V0.417246H19.8609Z" fill="white"/>
<path d="M40.3112 30C37.5574 30 35.0261 29.3602 32.7173 28.0807C30.4364 26.8011 28.6144 25.0209 27.2514 22.7399C25.9162 20.4312 25.2486 17.8442 25.2486 14.9791C25.2486 12.114 25.9162 9.54103 27.2514 7.26008C28.6144 4.97914 30.4364 3.19889 32.7173 1.91933C35.0261 0.639778 37.5574 0 40.3112 0C43.065 0 45.5824 0.639778 47.8634 1.91933C50.1721 3.19889 51.9802 4.97914 53.2876 7.26008C54.6227 9.54103 55.2903 12.114 55.2903 14.9791C55.2903 17.8442 54.6227 20.4312 53.2876 22.7399C51.9524 25.0209 50.1443 26.8011 47.8634 28.0807C45.5824 29.3602 43.065 30 40.3112 30ZM40.3112 23.491C42.6478 23.491 44.5115 22.7121 45.9023 21.1544C47.3209 19.5967 48.0303 17.5382 48.0303 14.9791C48.0303 12.3922 47.3209 10.3338 45.9023 8.80389C44.5115 7.24618 42.6478 6.46732 40.3112 6.46732C37.9468 6.46732 36.0553 7.23227 34.6367 8.76217C33.2458 10.2921 32.5504 12.3644 32.5504 14.9791C32.5504 17.5661 33.2458 19.6384 34.6367 21.1961C36.0553 22.726 37.9468 23.491 40.3112 23.491Z" fill="white"/>
<path d="M77.8272 14.6871C79.524 15.0487 80.887 15.8971 81.9162 17.2323C82.9454 18.5396 83.46 20.0417 83.46 21.7385C83.46 24.1864 82.5977 26.1335 80.8731 27.58C79.1763 28.9986 76.798 29.7079 73.7382 29.7079H60.0942V0.417246H73.2792C76.2555 0.417246 78.5782 1.09875 80.2472 2.46175C81.944 3.82476 82.7924 5.67455 82.7924 8.01113C82.7924 9.73574 82.3334 11.1683 81.4155 12.3088C80.5254 13.4492 79.3293 14.242 77.8272 14.6871ZM67.2291 12.267H71.9023C73.0706 12.267 73.9607 12.0167 74.5727 11.516C75.2124 10.9875 75.5323 10.2225 75.5323 9.22114C75.5323 8.21975 75.2124 7.4548 74.5727 6.92629C73.9607 6.39777 73.0706 6.13352 71.9023 6.13352H67.2291V12.267ZM72.4864 23.9499C73.6825 23.9499 74.6005 23.6857 75.2402 23.1572C75.9078 22.6008 76.2416 21.8081 76.2416 20.7789C76.2416 19.7497 75.8939 18.943 75.1985 18.3588C74.5309 17.7747 73.5991 17.4826 72.403 17.4826H67.2291V23.9499H72.4864Z" fill="white"/>
<path d="M99.0308 30C96.8889 30 94.9696 29.6523 93.2728 28.9569C91.576 28.2615 90.213 27.2323 89.1838 25.8693C88.1824 24.5063 87.6539 22.8651 87.5982 20.9458H95.1921C95.3034 22.0306 95.6789 22.8651 96.3187 23.4492C96.9585 24.0056 97.7929 24.2837 98.8222 24.2837C99.8792 24.2837 100.714 24.0473 101.326 23.5744C101.938 23.0737 102.244 22.3922 102.244 21.5299C102.244 20.8067 101.993 20.2086 101.493 19.7357C101.02 19.2629 100.422 18.8734 99.6984 18.5675C99.003 18.2615 98.0016 17.9138 96.6942 17.5243C94.8027 16.9402 93.2589 16.3561 92.0628 15.7719C90.8667 15.1878 89.8375 14.3255 88.9752 13.185C88.1128 12.0445 87.6817 10.5563 87.6817 8.72045C87.6817 5.99444 88.6692 3.86648 90.6441 2.33658C92.6191 0.77886 95.1921 0 98.3632 0C101.59 0 104.191 0.77886 106.166 2.33658C108.141 3.86648 109.198 6.00834 109.337 8.76217H101.618C101.562 7.81641 101.214 7.07928 100.575 6.55077C99.9348 5.99444 99.1142 5.71627 98.1128 5.71627C97.2505 5.71627 96.5551 5.95271 96.0266 6.42559C95.4981 6.87065 95.2338 7.52434 95.2338 8.38665C95.2338 9.33241 95.6789 10.0695 96.569 10.5981C97.4592 11.1266 98.85 11.6968 100.741 12.3088C102.633 12.9485 104.163 13.5605 105.331 14.1446C106.527 14.7288 107.557 15.5772 108.419 16.6898C109.281 17.8025 109.712 19.235 109.712 20.9875C109.712 22.6565 109.281 24.1725 108.419 25.5355C107.584 26.8985 106.36 27.9833 104.747 28.79C103.134 29.5967 101.228 30 99.0308 30Z" fill="white"/>
<path d="M137.26 9.84701C137.26 11.5438 136.871 13.1015 136.092 14.5202C135.313 15.911 134.117 17.0376 132.504 17.8999C130.89 18.7622 128.888 19.1933 126.495 19.1933H122.073V29.7079H114.938V0.417246H126.495C128.832 0.417246 130.807 0.820583 132.42 1.62726C134.034 2.43393 135.244 3.54659 136.05 4.96523C136.857 6.38386 137.26 8.01113 137.26 9.84701ZM125.953 13.5188C127.316 13.5188 128.331 13.1989 128.999 12.5591C129.666 11.9193 130 11.0153 130 9.84701C130 8.67872 129.666 7.77469 128.999 7.13491C128.331 6.49513 127.316 6.17524 125.953 6.17524H122.073V13.5188H125.953Z" fill="white"/>
<path d="M155.662 30C152.908 30 150.377 29.3602 148.068 28.0807C145.787 26.8011 143.965 25.0209 142.602 22.7399C141.267 20.4312 140.599 17.8442 140.599 14.9791C140.599 12.114 141.267 9.54103 142.602 7.26008C143.965 4.97914 145.787 3.19889 148.068 1.91933C150.377 0.639778 152.908 0 155.662 0C158.416 0 160.933 0.639778 163.214 1.91933C165.523 3.19889 167.331 4.97914 168.638 7.26008C169.973 9.54103 170.641 12.114 170.641 14.9791C170.641 17.8442 169.973 20.4312 168.638 22.7399C167.303 25.0209 165.495 26.8011 163.214 28.0807C160.933 29.3602 158.416 30 155.662 30ZM155.662 23.491C157.998 23.491 159.862 22.7121 161.253 21.1544C162.672 19.5967 163.381 17.5382 163.381 14.9791C163.381 12.3922 162.672 10.3338 161.253 8.80389C159.862 7.24618 157.998 6.46732 155.662 6.46732C153.297 6.46732 151.406 7.23227 149.987 8.76217C148.596 10.2921 147.901 12.3644 147.901 14.9791C147.901 17.5661 148.596 19.6384 149.987 21.1961C151.406 22.726 153.297 23.491 155.662 23.491Z" fill="white"/>
<path d="M196.516 0.417246V6.13352H188.755V29.7079H181.62V6.13352H173.859V0.417246H196.516Z" fill="white"/>
</svg>
